<?xml version="1.0" encoding="UTF-8" standalone="no"?>
<!-- Created with Inkscape (http://www.inkscape.org/) -->

<svg
   xmlns:dc="http://purl.org/dc/elements/1.1/"
   xmlns:cc="http://creativecommons.org/ns#"
   xmlns:rdf="http://www.w3.org/1999/02/22-rdf-syntax-ns#"
   xmlns:svg="http://www.w3.org/2000/svg"
   xmlns="http://www.w3.org/2000/svg"
   xmlns:sodipodi="http://sodipodi.sourceforge.net/DTD/sodipodi-0.dtd"
   xmlns:inkscape="http://www.inkscape.org/namespaces/inkscape"
   width="100mm"
   height="75mm"
   viewBox="0 0 354.33071 265.74803"
   id="svg2"
   version="1.1"
   inkscape:version="0.91 r13725"
   sodipodi:docname="logo3.svg">
  <defs
     id="defs4" />
  <sodipodi:namedview
     id="base"
     pagecolor="#ffffff"
     bordercolor="#666666"
     borderopacity="1.0"
     inkscape:pageopacity="0.0"
     inkscape:pageshadow="2"
     inkscape:zoom="0.98994949"
     inkscape:cx="250.71215"
     inkscape:cy="141.77587"
     inkscape:document-units="px"
     inkscape:current-layer="layer1"
     showgrid="false"
     inkscape:window-width="1366"
     inkscape:window-height="714"
     inkscape:window-x="0"
     inkscape:window-y="337"
     inkscape:window-maximized="1" />
  <metadata
     id="metadata7">
    <rdf:RDF>
      <cc:Work
         rdf:about="">
        <dc:format>image/svg+xml</dc:format>
        <dc:type
           rdf:resource="http://purl.org/dc/dcmitype/StillImage" />
        <dc:title></dc:title>
      </cc:Work>
    </rdf:RDF>
  </metadata>
  <g
     inkscape:label="Layer 1"
     inkscape:groupmode="layer"
     id="layer1"
     transform="translate(0,-786.61418)">
    <g
       id="g3402"
       transform="matrix(0.86621133,0,0,1.0243749,-87.693616,463.88995)"
       style="fill:#000000">
      <path
         inkscape:connector-curvature="0"
         d="m 394.57362,348.54678 c -1.16769,2.19354 -2.68397,4.18323 -4.31901,6.04615 -2.46811,2.20479 -4.85824,4.49256 -7.26957,6.7604 -3.29508,2.98971 -6.54619,6.02882 -9.88586,8.96879 -3.9702,3.48963 -8.09425,6.80126 -12.25917,10.05448 -4.16864,3.26087 -8.30038,6.56796 -12.42245,9.88733 -4.26644,3.26404 -8.47613,6.59511 -12.6097,10.02619 -4.94269,4.25638 -10.10567,8.16847 -15.62956,11.63641 -9.44316,5.84246 -19.2294,11.06688 -29.07219,16.18748 -7.11071,3.80594 -14.32851,7.40577 -21.45842,11.17485 -7.16286,3.68668 -14.29539,7.43116 -21.44837,11.13668 -7.18706,3.54392 -14.27934,7.27457 -21.43419,10.88226 -7.15149,3.46018 -14.25466,7.01941 -21.44024,10.40865 -4.41764,2.13221 -8.81259,4.33264 -13.08588,6.74449 -0.91798,0.51811 -3.66033,2.09246 -2.73622,1.58535 2.07913,-1.14096 4.13447,-2.32473 6.20171,-3.48709 -3.8113,2.44642 -7.48777,5.09475 -11.23064,7.64275 -4.40003,3.1336 -9.19725,5.63785 -13.87171,8.33037 0,0 8.24052,-6.63177 8.24052,-6.63177 l 0,0 c -16.48269,9.58706 -7.51921,4.54878 -4.00384,2.06902 3.85561,-2.49483 7.53091,-5.26639 11.40082,-7.74275 8.80408,-5.17634 17.55286,-10.46747 26.86399,-14.70502 7.17242,-3.40464 14.27983,-6.94392 21.41646,-10.42268 7.14633,-3.61949 14.24994,-7.32291 21.42392,-10.88783 7.14557,-3.71612 14.28976,-7.43431 21.44123,-11.13915 7.14048,-3.75486 14.35112,-7.37495 21.46777,-11.1756 3.53492,-1.84077 7.07029,-3.67526 10.56588,-5.59018 1.14238,-0.62581 4.52359,-2.58231 3.42003,-1.89033 -1.69627,1.06363 -3.45669,2.02166 -5.19994,3.0064 -1.07719,0.6085 2.13439,-1.2517 3.20159,-1.87756 2.92644,-1.79339 5.80916,-3.62219 8.53488,-5.71553 1.9272,-1.48009 2.84273,-2.36645 4.70552,-3.89782 0.75589,-0.6214 1.5288,-1.22181 2.2932,-1.83272 4.10822,-3.44913 8.28771,-6.80691 12.57432,-10.03216 4.13168,-3.31702 8.25784,-6.64024 12.4287,-9.90827 4.16585,-3.21794 8.27606,-6.51622 12.23819,-9.98269 3.3317,-2.88701 6.51787,-5.93358 9.78515,-8.89264 2.41005,-2.2186 4.65153,-4.6193 7.22419,-6.65736 1.66481,-1.70585 3.12656,-3.62688 4.28901,-5.70847 0,0 9.65988,-4.37043 9.65988,-4.37043 z"
         id="path3352"
         style="fill:#000000" />
      <path
         inkscape:connector-curvature="0"
         d="m 436.53763,370.80862 c -1.74043,1.4011 -3.24109,3.05898 -4.94388,4.50407 -1.51428,1.17304 -2.8471,2.55052 -4.27474,3.82091 -2.02968,2.02423 -3.87281,4.21603 -5.89269,6.25113 -3.0338,2.98645 -6.07989,5.9586 -9.21382,8.84002 -3.2937,3.11232 -6.79073,5.99066 -10.32718,8.81917 -3.70344,3.02651 -7.45347,5.99676 -11.23744,8.92194 -4.25579,3.19331 -8.41415,6.51242 -12.82277,9.49472 -8.65584,5.5216 -17.72109,10.36641 -26.88377,14.98167 -7.23659,3.55963 -14.71779,6.59145 -22.14674,9.722 -7.31818,3.0726 -14.67818,6.04398 -22.04132,9.00674 -7.27442,2.98899 -14.3512,6.41891 -21.4335,9.82937 -7.17295,3.38381 -14.31611,6.83199 -21.41568,10.36735 -7.10101,3.51084 -14.28589,6.84692 -21.43527,10.25678 -3.37814,1.53994 -6.7015,3.19964 -9.95995,4.97889 -0.94458,0.51578 -3.74485,2.12307 -2.81484,1.58145 8.40269,-4.89354 7.39988,-4.30869 3.69775,-1.9966 -5.56677,3.29232 -11.08086,6.71209 -16.87194,9.59845 -2.36349,1.10473 -1.20682,0.53805 -3.47155,1.6969 -2.8476,1.23118 -5.73169,2.36574 -8.57521,3.6099 -1.50607,0.63976 -2.88737,1.39929 -4.5165,1.67519 -1.52823,0.21359 -2.54186,-0.31159 -2.48642,-1.94929 0,0 9.63423,-4.49881 9.63423,-4.49881 l 0,0 c -0.0864,0.044 -0.16573,0.10645 -0.25929,0.13197 -0.0439,0.012 -0.15864,-0.0631 -0.1344,-0.0246 0.24581,0.3909 1.38732,-0.0748 1.66813,-0.0743 1.49496,-0.44308 2.85085,-1.21962 4.31118,-1.76034 2.80595,-1.20823 5.68423,-2.249 8.43744,-3.5759 1.13942,-0.56425 2.28917,-1.1077 3.42364,-1.68184 0.62681,-0.31722 2.46503,-1.34633 1.86712,-0.97751 -13.76854,8.49306 -5.59117,3.11168 -2.50602,1.51192 8.44529,-5.38354 17.24147,-10.23983 26.3334,-14.44129 7.15254,-3.39568 14.32323,-6.75412 21.41997,-10.266 7.10907,-3.52186 14.25308,-6.9731 21.42701,-10.36089 7.09141,-3.41521 14.19228,-6.81977 21.48645,-9.78725 7.34806,-2.95696 14.69298,-5.92256 21.99528,-8.99126 7.43919,-3.13838 14.92552,-6.19341 22.14828,-9.81182 3.32525,-1.69311 6.64974,-3.39216 9.92526,-5.18052 1.01227,-0.55267 4.0057,-2.28747 3.01842,-1.6913 -1.93066,1.16583 -3.87411,2.31209 -5.84931,3.40074 -0.87083,0.47997 1.68947,-1.04906 2.5342,-1.57359 4.43741,-2.90641 8.56127,-6.23616 12.80531,-9.41241 3.78246,-2.90042 7.50943,-5.87441 11.20232,-8.88766 3.52822,-2.82004 7.05799,-5.64192 10.34119,-8.75032 3.11916,-2.84795 6.15318,-5.78098 9.1453,-8.76241 2.01449,-2.00368 3.89814,-4.1142 5.75199,-6.26548 1.4493,-1.26271 2.75868,-2.62796 4.23285,-3.86532 1.79299,-1.3127 3.26435,-2.95426 4.89268,-4.45296 0,0 9.81483,-3.96158 9.81483,-3.96158 z"
         id="path3354"
         style="fill:#000000" />
      <path
         inkscape:connector-curvature="0"
         d="m 177.43076,486.40392 c -0.94406,1.57461 -1.87371,3.15996 -2.86437,4.70607 -0.75125,1.21665 -1.55371,2.39886 -2.33783,3.59409 -0.92671,1.47483 -1.92856,2.89839 -2.89357,4.34828 -1.44061,2.24886 -2.79526,4.55206 -4.27446,6.77572 -2.03761,2.9177 -3.46196,6.15947 -5.01781,9.3397 -2.42766,4.94636 -4.727,9.92986 -7.52339,14.68267 -2.51926,3.97728 -5.65681,7.49522 -8.87289,10.91254 -2.82661,2.94279 -5.73131,5.80915 -8.62438,8.68621 -2.67411,2.49852 -4.86957,5.43206 -7.11277,8.30547 -1.19155,1.63564 -2.6997,2.99871 -3.99529,4.5458 -9.4418,5.56256 -6.89874,8.1577 -9.63389,5.09957 0,0 8.89796,-5.94799 8.89796,-5.94799 l 0,0 c -2.17574,-3.15422 -0.11373,-0.40176 -9.06984,4.91825 0.88377,-0.76799 1.60492,-1.72441 2.42092,-2.56337 0.2912,-0.29939 0.63257,-0.54825 0.91532,-0.85563 0.32361,-0.35179 0.59949,-0.74466 0.89923,-1.11699 2.36875,-2.81663 4.41078,-5.93342 7.14177,-8.43815 2.89588,-2.87861 5.80272,-5.74665 8.65589,-8.66777 3.25682,-3.39242 6.43726,-6.8725 9.10063,-10.76272 1.09304,-1.8112 1.93317,-3.14057 2.91408,-5.01844 1.6248,-3.11057 2.86149,-6.40596 4.4802,-9.52001 1.5919,-3.1656 2.86617,-6.47998 4.87778,-9.42344 1.47798,-2.20177 2.84518,-4.47324 4.20257,-6.74708 0.96036,-1.41613 1.86113,-2.87667 2.83768,-4.2651 0.69684,-1.26702 1.61595,-2.38616 2.35311,-3.62794 0.95561,-1.5293 1.92655,-3.04696 2.86347,-4.58931 0,0 9.65988,-4.37043 9.65988,-4.37043 z"
         id="path3358"
         style="fill:#000000" />
      <path
         inkscape:connector-curvature="0"
         d="m 209.02388,540.2686 c -1.58035,1.6529 -3.6658,2.68611 -5.49064,4.04619 -2.16627,1.76724 -4.77223,2.71877 -7.3538,3.6859 -5.08479,1.53854 -10.09191,3.57136 -15.2568,4.92754 -2.13304,0.56009 -4.29644,1.00377 -6.43047,1.56706 -4.61634,0.91093 -9.13839,2.20613 -13.70194,3.34 -4.84499,1.13414 -9.64151,2.48161 -14.50425,3.54002 -4.30625,0.89874 -8.59493,1.85002 -12.84566,2.98519 -3.71504,0.7461 -7.28266,2.03646 -10.92931,3.03689 -2.55154,0.28322 -4.86243,1.58285 -7.37224,1.9994 0,0 9.39708,-4.81537 9.39708,-4.81537 l 0,0 c 2.3879,-0.67015 4.73562,-1.49621 7.1777,-1.96825 3.61417,-1.05158 7.20358,-2.19957 10.88795,-2.99029 4.24738,-1.0694 8.51499,-2.02818 12.80177,-2.92465 4.84787,-1.12367 9.6631,-2.3846 14.49794,-3.56219 4.56858,-1.13046 9.10015,-2.40335 13.71112,-3.35791 2.14619,-0.55 4.31431,-1.02918 6.45042,-1.61714 3.49443,-0.96182 11.60691,-3.64016 -4.10855,1.63837 2.5108,-0.97265 5.14409,-1.71499 7.30441,-3.38838 0.66031,-0.48156 1.27699,-1.02207 1.9467,-1.49046 1.13254,-0.79209 2.44046,-1.33541 3.49243,-2.24678 0,0 10.32614,-2.40514 10.32614,-2.40514 z"
         id="path3360"
         style="fill:#000000" />
      <path
         inkscape:connector-curvature="0"
         d="m 140.43559,549.1261 c -0.18696,1.8177 -0.44363,3.62563 -0.58942,5.44797 -0.1925,1.34067 -0.47304,2.6698 -0.73512,3.99929 -0.38832,1.14568 -0.61197,2.31924 -0.72968,3.5202 -0.0764,0.84915 0.43995,1.47788 1.15877,0.79521 0.12051,-0.0664 0.48126,-0.26681 0.36152,-0.19907 -22.77808,12.8864 0.50838,-0.42389 1.16599,-0.82185 2.84685,-1.72278 -5.75946,3.33459 -8.65062,4.98193 -0.15282,0.0871 0.28927,-0.20012 0.43391,-0.30018 3.25683,-2.36786 6.81562,-3.84474 10.34253,-6.15882 2.77898,-1.82333 -5.7504,3.335 -8.63548,4.98531 -0.23215,0.13279 0.43759,-0.30932 0.63842,-0.48594 0.49805,-0.0154 -1.53114,-0.11171 -1.57004,-0.11392 -1.38956,-0.0525 -2.78057,-0.0383 -4.1708,-0.033 -1.50327,0.011 -3.00652,0.006 -4.5098,0.005 -2.01157,-0.009 -4.02316,-0.008 -6.03474,-0.0154 -2.44066,0.0253 -4.86297,0.0323 -7.28808,-0.24837 -0.98928,-0.19582 -3.38785,-0.0945 -4.13463,-0.87743 -0.12444,-0.13046 -0.1816,-0.31151 -0.2724,-0.46726 -1.09481,-4.93304 7.72941,-7.17607 11.65414,-5.47931 1.19932,0.35537 2.08422,1.27345 3.17513,1.82933 0.93575,0.5524 1.7096,1.30382 2.55472,1.97349 0.97938,0.78424 1.89952,1.66555 3.00982,2.26234 0.38786,0.2039 0.86892,0.81245 1.37993,0.72505 0.10002,-0.0171 0.3315,-0.23258 0.24218,-0.18442 -8.05205,4.34088 -11.96245,6.65838 -8.67778,4.71583 0.72019,-0.58468 1.13186,-1.54258 1.45322,-2.39963 0.22815,-1.17078 0.53255,-2.32274 0.80013,-3.4855 0.34387,-1.12238 0.66755,-2.23886 0.92437,-3.38588 0.30409,-1.09889 0.64883,-2.17308 1.29292,-3.12152 2.92479,-2.98246 5.50867,-3.14344 10.25764,-6.27721 2.77433,-1.83074 -5.75457,3.32857 -8.6403,4.97814 -0.33984,0.19427 0.64796,-0.43989 0.96166,-0.67404 12.45289,-7.19531 12.80676,-7.39003 1.03769,-0.62562 0,0 9.8773,-3.84245 9.8773,-3.84245 l 0,0 c -12.40698,7.21424 -12.75309,7.41997 -1.04936,0.5982 -0.33083,0.20309 -0.60456,0.49147 -0.93809,0.69009 -3.15143,1.87663 -6.28137,3.79449 -9.50759,5.5394 -2.9232,1.58103 5.73094,-3.36681 8.59802,-5.04746 0.28602,-0.16766 -1.18037,0.66172 -0.78323,0.61299 -0.96332,0.56562 -1.21306,1.62097 -1.52338,2.63381 -0.41882,1.06464 -0.36865,2.28581 -0.97333,3.29954 -0.21022,1.20748 -0.65786,2.3418 -0.75232,3.56828 -0.24449,1.06017 -0.73744,1.95525 -1.17542,2.93566 -4.1841,5.06279 -7.6926,7.43437 -11.69536,4.50131 -1.0962,-0.71503 -2.087,-1.57758 -3.11603,-2.38442 -0.77482,-0.66273 -1.55997,-1.31118 -2.44599,-1.82431 -0.99042,-0.61352 -1.90582,-1.36987 -3.06054,-1.66567 -0.49538,-0.11565 -0.94102,-0.22247 -1.45094,-0.13329 -0.15558,0.0272 -0.59664,0.19122 -0.46068,0.11084 8.97129,-5.30351 11.09654,-2.50021 8.37724,-5.62303 -0.0567,-0.0618 -0.22425,-0.12138 -0.17005,-0.18535 0.0565,-0.0667 0.15927,0.0733 0.24261,0.0997 0.18614,0.059 0.37355,0.11587 0.5646,0.15629 0.98072,0.20747 1.98532,0.24274 2.97651,0.37463 2.40494,0.22334 4.81254,0.17923 7.22611,0.15852 2.02666,-0.007 4.05334,-0.007 6.07997,-0.019 1.50893,-0.006 3.01784,-0.0173 4.52679,-0.0184 1.41649,-10e-4 2.83653,-0.0175 4.24895,0.10618 1.22232,0.16426 2.50542,0.46808 2.65002,1.9194 -1.13005,3.68663 -9.67314,6.34035 -9.9609,6.51559 -2.83596,1.72703 5.7247,-3.36594 8.59608,-5.03341 0.30104,-0.17482 -1.22137,0.75685 -0.79939,0.67204 -6.04425,3.4829 -19.19192,11.11663 -1.31182,0.80287 0.13836,-0.0798 -0.2567,0.1914 -0.39507,0.27119 -3.1663,1.82586 -6.32152,3.6718 -9.5176,5.44501 -0.13592,0.0754 -0.30512,0.0596 -0.45768,0.0893 -1.30328,-0.23689 -2.08394,-1.14428 -2.14898,-2.49041 0.0779,-1.24996 0.18687,-2.51024 0.63061,-3.69323 0.44997,-1.22575 0.41701,-2.60375 0.87028,-3.84232 0.13626,-1.79009 0.35579,-3.57025 0.58025,-5.35113 0,0 9.44261,-4.81124 9.44261,-4.81124 z"
         id="path3362"
         style="fill:#000000" />
      <path
         inkscape:connector-curvature="0"
         d="m 206.081,540.9373 c 1.60049,-0.71063 3.13605,-1.56221 4.69458,-2.36258 1.30505,-0.74643 2.61926,-1.49262 3.98525,-2.12454 0.69051,-0.37475 1.38822,-0.73683 2.09028,-1.08906 0.23611,-0.11846 0.94981,-0.46063 0.72156,-0.32767 -2.79836,1.63013 -11.18492,6.53176 -8.43509,4.82104 3.15121,-1.96043 6.42663,-3.71374 9.63995,-5.57061 1.62695,-0.36896 3.11643,-1.0132 4.62215,-1.70575 2.10307,-0.91753 4.10944,-2.02893 6.24364,-2.87797 2.38791,-1.10923 4.64964,-2.45957 7.07466,-3.48928 2.43323,-0.90553 4.86706,-1.80901 7.28576,-2.76491 2.39041,-1.19255 4.82758,-2.2776 7.24434,-3.41511 2.10475,-1.46097 4.70246,-1.94071 6.86327,-3.25825 1.82513,-1.0648 3.80954,-1.76135 5.77368,-2.51148 1.15849,-0.55921 2.34977,-1.35469 3.55145,-1.78597 -0.81135,0.59503 3.15636,-1.70979 2.17113,-1.14006 -2.83498,1.6394 -11.3528,6.53522 -8.51566,4.89957 3.21116,-1.85128 6.42516,-3.69764 9.63774,-5.54646 -2.84234,1.6332 -5.677,3.27985 -8.52703,4.89961 -0.17909,0.10179 0.33456,-0.24164 0.51283,-0.34488 3.19611,-1.85106 6.40942,-3.67229 9.60903,-5.5173 2.85886,-1.64852 -5.72058,3.29214 -8.5868,4.92784 -0.16368,0.0934 0.31495,-0.20756 0.47877,-0.30072 3.2005,-1.82021 6.40912,-3.62608 9.61368,-5.43912 -22.76028,13.03546 0.60673,-0.38139 0.91899,-0.55684 0.16337,-0.0918 0.36508,-0.0961 0.53247,-0.18031 0.50645,-0.25484 0.8769,-0.53047 1.43163,-0.71503 0.3855,-0.4202 0.95196,-0.47409 1.42739,-0.71189 0.50481,-0.2525 0.87503,-0.52873 1.42752,-0.71286 0.72929,-0.51076 1.62493,-0.55535 2.43991,-0.81547 0.38916,-0.1242 0.74952,-0.32612 1.13233,-0.46871 0.1837,-0.10021 0.7327,-0.40464 0.55111,-0.30064 -2.82484,1.6178 -11.25877,6.53941 -8.48097,4.84212 3.5622,-2.17659 7.62486,-4.77586 11.69562,-6.48699 1.26267,-0.67182 2.53769,-1.29174 3.80324,-1.95726 1.31848,-0.45458 2.42057,-1.31795 3.7039,-1.8361 -22.5774,12.94288 0.66257,-0.41736 1.00233,-0.61169 2.87706,-1.64555 -5.73477,3.32485 -8.61711,4.96111 -0.15558,0.0883 0.27965,-0.22531 0.43404,-0.31571 9.50843,-5.5676 6.00591,-4.56266 10.09942,-5.67738 0.99351,-0.6211 2.16311,-0.81681 3.142,-1.46634 3.37611,-1.50613 7.17368,-3.7765 -7.45843,4.37897 -0.18195,0.10141 0.33479,-0.24796 0.50172,-0.37258 0.92115,-0.68766 0.30554,-0.23938 1.2928,-0.94609 0.23452,-0.16287 0.4569,-0.34478 0.70354,-0.48862 26.81451,-15.42242 0.76245,-0.43538 1.3733,-0.79794 3.19799,-1.89811 6.42692,-3.74403 9.66441,-5.57394 0.40228,-0.22737 0.85293,-0.3577 1.26587,-0.56507 0.6779,-0.13385 1.13577,-0.66469 1.76098,-0.91184 0.22118,-0.0874 0.46877,-0.10017 0.6854,-0.19836 0.23652,-0.10719 0.44081,-0.27463 0.66121,-0.41195 0.27549,-0.12034 0.55097,-0.24068 0.82646,-0.36102 -0.58434,0.27418 2.54403,-1.16295 1.94123,-0.80587 -2.68654,1.59139 -10.81249,6.24983 -8.14769,4.62228 3.1835,-1.94435 7.61659,-5.09009 11.7815,-6.42982 0.85985,-0.33259 1.6667,-0.71085 2.47629,-1.14528 0.28041,-0.15047 1.127,-0.59097 0.8516,-0.43151 -2.74763,1.59096 -10.9963,6.35309 -8.26949,4.72668 3.23795,-1.93127 6.53543,-3.76095 9.80314,-5.64142 1.67464,-0.73635 3.30071,-1.57777 4.94071,-2.38954 1.21666,-0.46994 0.21756,-0.0333 1.26229,-0.62124 0.1812,-0.10197 0.73773,-0.38335 0.5578,-0.27916 -28.54709,16.53122 21.24606,-12.16666 -7.4228,4.27908 3.94926,-2.63461 8.10201,-4.8652 12.23137,-7.24573 -28.48751,16.36787 22.67423,-13.22427 -6.34087,3.48579 0.89838,-0.50919 1.66368,-1.1896 2.4603,-1.83625 3.36128,-2.25261 6.57278,-3.87316 10.41818,-6.04342 2.89399,-1.6333 -11.47666,6.70322 -8.6511,4.95421 0.13537,-0.0838 23.85678,-13.75799 0.88559,-0.51497 4.78344,-3.1158 20.52197,-11.77833 1.96677,-1.22122 -0.38508,0.2191 0.72417,-0.51193 1.06656,-0.79311 1.0432,-0.792 2.12765,-1.52735 3.1868,-2.29856 1.01036,-0.78999 2.12366,-1.42475 3.1393,-2.20548 32.1003,-18.47774 -5.901,3.27471 1.55132,-0.98948 3.20124,-1.83174 6.37039,-3.72229 9.62118,-5.46456 2.91463,-1.5621 -11.44424,6.63134 -8.61233,4.92386 3.14836,-1.89826 6.37459,-3.66426 9.56189,-5.49639 -2.87878,1.6571 -5.74811,3.33072 -8.63633,4.97129 -0.15257,0.0867 0.27527,-0.21963 0.4268,-0.30811 3.17254,-1.85257 6.39766,-3.61562 9.54316,-5.51375 2.84608,-1.71744 -5.75749,3.32429 -8.64472,4.9716 -0.1522,0.0868 0.28653,-0.2027 0.43866,-0.28965 3.19034,-1.82338 6.39184,-3.62718 9.58776,-5.44077 -18.43431,10.5321 -4.27139,2.37417 1.03683,-0.3721 0.19441,-0.10059 0.43992,5.7e-4 0.65567,-0.0364 0.5575,-0.0956 1.10407,-0.3012 1.58118,-0.59302 0.16195,-0.0769 0.32444,-0.15275 0.48586,-0.2308 0.41236,-0.19938 0.84957,-0.34483 1.26026,-0.54765 0.26064,-0.12872 1.00389,-0.58666 0.75082,-0.44362 -8.37901,4.73588 -10.67979,6.49025 -7.19112,3.91888 1.7376,-1.18262 3.2163,-2.69311 4.92455,-3.9111 3.55447,-2.51398 7.33739,-4.31036 11.17,-6.63157 2.74027,-1.65964 -11.12743,6.35539 -8.33061,4.79294 10.51861,-5.87622 6.10561,-4.46485 10.50682,-5.80874 0.21851,-0.15112 0.88669,-0.58428 0.65552,-0.45335 -2.79736,1.58443 -11.17867,6.3554 -8.35667,4.81528 3.27536,-1.78754 6.46424,-3.72948 9.71706,-5.55772 2.83478,-1.59327 -5.63699,3.24384 -8.46289,4.85281 -0.18886,0.10754 0.36272,-0.24006 0.55125,-0.34817 3.20824,-1.83973 6.42568,-3.66335 9.63852,-5.49503 -22.59199,12.99601 0.64495,-0.41941 0.97952,-0.60872 0.16825,-0.0952 0.37409,-0.10715 0.54595,-0.19567 0.51164,-0.26349 0.88438,-0.541 1.44582,-0.72974 3.04515,-1.94309 7.49551,-4.21934 -7.75859,4.43996 -0.14964,0.0849 0.27828,-0.20249 0.41967,-0.30055 0.61569,-0.42701 0.20752,-0.0985 0.7903,-0.60976 3.20559,-2.62582 6.62581,-3.97881 10.55387,-6.25704 2.84673,-1.65107 -11.39613,6.58786 -8.56445,4.91112 9.08543,-5.37976 6.14577,-4.30777 10.15975,-5.71788 3.10403,-1.89797 7.44495,-4.18082 -7.67499,4.40156 -0.15307,0.0869 0.28041,-0.21432 0.43255,-0.30283 9.55151,-5.55709 6.00758,-4.56296 10.10703,-5.65312 0.41949,-0.39007 1.00249,-0.42624 1.4932,-0.65061 0.51051,-0.23342 0.90522,-0.51125 1.45546,-0.68795 3.52966,-1.82803 9.31936,-5.25669 -6.24461,3.68475 25.29371,-14.50768 1.40802,-0.7958 1.05652,-0.59596 -0.17319,0.0985 0.33098,-0.22185 0.49812,-0.33026 0.36488,-0.23668 0.71919,-0.49094 1.09696,-0.70644 3.22113,-1.83747 6.4553,-3.652 9.68295,-5.478 3.69465,-1.67828 10.31165,-5.70286 -5.20196,3.17589 5.63768,-3.72871 21.54253,-12.4498 3.96829,-2.49036 -0.73511,0.4166 1.44733,-0.87237 2.16913,-1.31162 1.67435,-1.10054 3.27823,-2.3059 4.78947,-3.62115 0.83733,-0.74401 1.67029,-1.50032 2.43405,-2.3203 0.63948,-0.79171 1.55016,-1.2714 2.2338,-2.00679 0.68197,-0.74371 1.37814,-1.47749 2.04131,-2.23899 0.69662,-0.73376 1.43689,-1.42556 2.12336,-2.16894 3.39513,-3.34811 7.65952,-5.01059 11.92174,-7.48089 -14.24643,9.35937 -9.38405,5.97995 -6.50278,2.96729 0.63472,-0.85063 1.42704,-1.50683 2.25114,-2.1563 0.42635,-0.26186 0.79506,-0.5979 1.19602,-0.89534 0,0 9.82289,-4.02605 9.82289,-4.02605 l 0,0 c -0.3568,0.40574 -0.76944,0.65345 -1.13661,1.04837 -0.89726,0.51026 -1.67854,1.11358 -2.36891,1.87812 -2.78962,3.84876 -7.21715,5.59386 -11.48681,7.83827 2.81445,-1.6345 5.62034,-3.28382 8.44336,-4.90348 0.19984,-0.11466 -0.36989,0.27754 -0.57231,0.38759 -0.65538,0.35628 -1.32419,0.64987 -1.74366,1.31982 -0.79501,0.61623 -1.43684,1.4277 -2.13248,2.14641 -0.78335,0.6268 -1.40837,1.45955 -2.04682,2.22403 -1.04739,0.96064 0.33536,-0.35852 -0.67115,0.78427 -0.45481,0.51637 -1.24311,0.5747 -1.54914,1.25927 -0.89461,0.70403 -1.59353,1.63964 -2.45375,2.39124 -1.60663,1.26157 -3.11332,2.65149 -4.82607,3.78284 -3.94047,2.55041 -8.32751,4.85219 -12.22892,7.19903 -2.60541,1.56725 5.23979,-3.08628 7.88205,-4.59057 0.59898,-0.34101 -2.10772,1.41015 -1.74645,1.10705 -4.29334,2.54524 -8.35903,5.27768 -12.89141,7.29183 28.2004,-16.34381 -22.9287,13.37766 5.84019,-3.28994 -3.85595,2.2225 -7.81794,4.85022 -11.98605,6.68139 -0.97282,0.47148 -1.95855,0.9112 -2.95652,1.32628 -3.40601,1.76829 -1.01438,0.53643 8.12231,-4.75574 0.1509,-0.0874 -0.29244,0.19031 -0.4428,0.27867 -3.15787,1.85591 -6.87315,4.3725 -10.50776,6.06597 -0.17141,0.0916 -0.68224,0.37259 -0.51422,0.27488 2.84721,-1.65576 11.43148,-6.54843 8.55212,-4.94922 -4.00918,2.22672 -20.28301,11.78138 -1.07487,0.56497 0.3301,-0.19276 -1.32349,0.71182 -0.9499,0.6425 -1.43344,1.03527 0.64577,-0.51016 -0.76022,0.68859 -3.15481,2.68978 -7.10732,4.50187 -10.86545,6.31202 -10.68613,5.70194 27.86578,-15.88784 -2.92148,1.57039 2.83651,-1.6445 5.67304,-3.28897 8.50953,-4.9335 0.18908,-0.10963 -0.37831,0.21897 -0.56729,0.32877 -3.21168,1.86601 -6.44028,3.70322 -9.63469,5.59864 -2.77531,1.64673 11.1819,-6.44892 8.37731,-4.85257 -10.67067,6.07367 -6.249,4.05501 -10.45978,5.9485 -0.23895,0.11512 -0.94546,0.47983 -0.71684,0.34536 2.7777,-1.63383 11.17216,-6.42964 8.36626,-4.84471 -3.2612,1.84209 -6.42205,3.86367 -9.73221,5.61627 -2.81883,1.49246 5.49156,-3.24623 8.2571,-4.83526 0.50324,-0.28916 -2.00629,1.32302 -1.38487,1.0554 -1.91112,0.94447 -3.24633,2.66753 -5.01632,3.82374 -4.06548,3.17971 -8.64245,5.70601 -13.37342,7.75354 -0.57328,0.14847 -1.14713,0.25423 -1.7233,0.38368 -0.19389,0.0436 -0.74469,0.26222 -0.57435,0.15986 2.55175,-1.53327 21.69106,-12.48836 -0.95007,0.4935 2.87187,-1.66185 5.74623,-3.31942 8.61562,-4.98555 0.1491,-0.0866 -0.30549,0.16018 -0.45457,0.2468 -3.1719,1.84305 -6.34427,3.68537 -9.50818,5.54212 -2.86253,1.67989 5.73246,-3.34717 8.60405,-5.01153 0.15002,-0.0869 -0.29264,0.18608 -0.43896,0.27911 -3.16335,1.86268 -6.32669,3.72535 -9.49003,5.58803 22.01813,-12.72746 0.0826,-0.0345 -0.98009,0.52229 -2.91966,1.5297 5.70643,-3.30065 8.55627,-4.95678 0.17011,-0.0989 -0.347,0.18576 -0.51695,0.28488 -3.18887,1.85977 -6.38229,3.71188 -9.55938,5.5917 -2.81999,1.66853 5.65871,-3.30522 8.48806,-4.95782 -0.5277,0.34311 -0.95887,0.81289 -1.49405,1.13715 -0.56892,0.34471 -1.21068,0.55478 -1.64854,1.10058 -1.11166,0.67852 -2.08769,1.56005 -3.2124,2.21099 -0.35883,0.27987 -0.63128,0.67142 -1.02115,0.90613 -3.17885,1.91381 -6.41231,3.73542 -9.6228,5.59566 -0.17174,0.0995 -0.69495,0.38373 -0.52366,0.28344 2.86615,-1.67811 5.73552,-3.35077 8.60855,-5.01708 0.14695,-0.0852 -0.28664,0.18242 -0.42996,0.27362 -3.15758,1.86448 -6.47746,3.47803 -9.47273,5.59344 -2.71193,1.91531 11.5302,-6.58826 8.61961,-4.99092 -2.54312,1.39568 -21.64164,12.54567 -0.92638,0.49332 0.29637,-0.17243 -1.23098,0.66035 -0.8428,0.58976 -0.96548,0.42957 -1.54756,1.30966 -2.47514,1.7991 -22.6725,13.25408 -3.35156,1.95623 -0.9061,0.53795 0.15161,-0.0879 -0.30299,0.1784 -0.44055,0.287 -1.05371,0.83189 0.26896,-0.0291 -0.89999,0.64785 -3.18697,1.84554 -6.36821,3.70096 -9.55231,5.55144 15.64522,-9.10676 9.29814,-5.52724 5.89356,-3.24968 -3.19243,1.86113 -6.43813,3.63373 -9.57728,5.58338 -2.779,1.72598 11.36541,-6.48384 8.49638,-4.91206 -3.24632,1.77848 -6.41565,3.69405 -9.62851,5.5323 -0.58066,0.33222 -1.205,0.56732 -1.80017,0.87065 -1.62215,0.82524 -3.2914,1.55607 -4.90155,2.40645 2.74399,-1.59381 10.98911,-6.35239 8.23197,-4.78144 -4.36797,2.48876 -8.4542,5.4034 -13.16771,7.14391 -0.60363,0.26393 -2.34934,1.19024 -1.7805,0.8579 2.69145,-1.57247 10.85099,-6.13838 8.09526,-4.68148 -4.09819,2.16663 -7.67032,4.75341 -11.85418,6.5145 -1.30933,0.66072 -2.64035,1.27527 -3.95839,1.91823 -0.41316,0.19322 -1.61789,0.84169 -1.22376,0.61214 2.80224,-1.63212 11.23513,-6.48322 8.41877,-4.8756 -32.40321,18.49625 5.95183,-3.2404 -2.12286,1.20605 -3.88164,2.87482 -8.09846,5.26488 -12.4034,7.46283 -1.08145,0.44814 -2.15975,0.89816 -3.22537,1.37979 -3.36419,1.80052 -1.3482,0.72904 8.11609,-4.75396 0.15348,-0.0889 -0.29386,0.19912 -0.44646,0.28954 -3.16203,1.87348 -6.48518,3.49548 -9.49702,5.60193 -0.32035,0.22405 24.94022,-14.4434 -1.0361,0.54945 -1.20871,0.65577 -2.42674,1.28582 -3.68103,1.85277 -1.28477,0.61541 -2.50293,1.36169 -3.81881,1.9162 -0.448,0.21858 -0.90062,0.42788 -1.34457,0.65456 -0.21063,0.10755 -0.82942,0.45475 -0.62496,0.3359 17.71451,-10.29714 4.18102,-2.15075 -1.86552,0.91123 -1.1891,0.43244 -2.42721,0.72549 -3.55115,1.33123 -0.94345,0.49251 -1.8895,0.97831 -2.8544,1.42542 -10.6457,5.58779 27.88133,-15.83911 -2.85828,1.47665 2.86189,-1.65452 5.72679,-3.30383 8.58567,-4.96355 0.16193,-0.094 -0.33247,0.17262 -0.4946,0.26629 -3.1894,1.84252 -6.35771,3.72169 -9.55978,5.54212 -2.85809,1.62487 5.6831,-3.30728 8.52783,-4.95544 0.17754,-0.10286 -0.35078,0.21298 -0.52617,0.31947 -3.19159,1.87001 -6.38318,3.74003 -9.57477,5.61004 2.82711,-1.63796 11.31109,-6.54731 8.48135,-4.91388 -3.92494,2.26561 -7.6936,4.81845 -11.84535,6.63972 -1.15517,0.60998 -2.32056,1.20431 -3.52708,1.70824 -1.93636,0.76426 -3.87069,1.52101 -5.66937,2.58596 -2.29622,1.04603 -4.67713,1.91036 -6.86169,3.19527 -2.41675,1.14661 -4.8555,2.24668 -7.28747,3.36034 -2.41514,0.94571 -4.85868,1.81377 -7.25647,2.80467 -2.38206,1.12935 -4.68095,2.42591 -7.09924,3.47981 -2.10489,0.94567 -4.16046,1.99555 -6.2693,2.93298 -1.51136,0.6775 -3.12543,1.06619 -4.59944,1.81648 18.87044,-10.91326 2.13616,-0.97596 -4.04557,2.10595 -1.32955,0.70399 -2.6555,1.41394 -3.97139,2.1432 -1.55743,0.82991 -3.15782,1.5793 -4.73521,2.37034 0,0 8.27957,-6.62288 8.27957,-6.62288 z"
         id="path3364"
         style="fill:#000000" />
      <path
         inkscape:connector-curvature="0"
         d="m 394.21393,351.5374 c 1.81104,0.48698 3.5989,1.05643 5.41445,1.52751 1.60172,0.26686 3.07291,0.96939 4.61548,1.43906 1.61639,0.52357 3.01261,1.48429 4.46752,2.33815 1.80521,0.90995 3.57578,1.84952 5.51919,2.45067 2.30558,0.77818 4.38681,2.02344 6.53665,3.13054 2.0551,0.93729 4.15224,1.81674 6.17895,2.82038 1.82757,0.93324 3.63387,1.86284 5.55467,2.59571 1.38784,0.64153 2.83216,1.20869 4.1459,1.99362 1.01453,0.44508 2.03896,0.90806 3.10197,1.23552 1.20793,0.21494 2.39374,0.30138 3.58144,0.61683 0.19176,0.042 0.38353,0.0841 0.5753,0.12612 0,0 -8.71176,6.03552 -8.71176,6.03552 l 0,0 c -0.19517,-0.0463 -0.39034,-0.0926 -0.58552,-0.13882 -1.20891,-0.26882 -2.47129,-0.25867 -3.64345,-0.69785 -1.08376,-0.41949 -2.18631,-0.81906 -3.19678,-1.39755 -1.31481,-0.68879 -2.64097,-1.35798 -4.02069,-1.90906 -1.90073,-0.79505 -3.6986,-1.76211 -5.53687,-2.68596 -2.08056,-0.94196 -4.1629,-1.87845 -6.23381,-2.84185 -2.07712,-1.13798 -4.15262,-2.28226 -6.42769,-2.99162 -1.97637,-0.70036 -3.84143,-1.63557 -5.69597,-2.60899 -1.38353,-0.8434 -2.7824,-1.6698 -4.3479,-2.13305 -1.50706,-0.52123 -2.99971,-1.08705 -4.56668,-1.41262 -1.78002,-0.515 -3.55256,-1.08208 -5.38466,-1.38606 0,0 8.66026,-6.1062 8.66026,-6.1062 z"
         id="path3366"
         style="fill:#000000" />
      <path
         inkscape:connector-curvature="0"
         d="m 441.14987,371.98324 c -0.065,1.99886 -0.0399,3.99946 -0.0287,5.99901 0.0138,1.96081 -0.007,3.92166 -0.0189,5.88249 -0.0126,2.63881 -0.0271,5.27768 -0.0153,7.91652 -0.13688,2.83894 0.2014,5.66224 0.95634,8.398 0.95183,2.87923 1.40563,5.86441 1.6887,8.8724 0.33225,2.46147 0.0867,4.85461 -0.6075,7.22207 -0.56822,1.37752 -0.83525,2.84587 -1.28765,4.25818 -0.22466,0.7122 -0.12724,0.37683 -0.29782,1.00445 0,0 -9.61448,4.52559 -9.61448,4.52559 l 0,0 c 0.23308,-0.61802 0.1198,-0.27726 0.32402,-1.02741 0.49283,-1.41906 0.77663,-2.88705 1.34084,-4.28625 0.85384,-2.22228 1.20739,-4.50332 0.89073,-6.88089 -0.23578,-2.95005 -0.6404,-5.88208 -1.60345,-8.6958 -0.80566,-2.80538 -1.21513,-5.7217 -1.10644,-8.64324 0.0118,-2.63364 -0.003,-5.26731 -0.0153,-7.90092 -0.0116,-1.9544 -0.0328,-3.90881 -0.0189,-5.86319 0.0111,-1.98979 0.0369,-3.98068 -0.0287,-5.96977 0,0 9.4426,-4.81124 9.4426,-4.81124 z"
         id="path3368"
         style="fill:#000000" />
      <path
         inkscape:connector-curvature="0"
         d="m 395.36672,348.08016 c 3.91737,-1.59957 12.03769,-6.55643 -3.94847,2.62949 4.63913,-1.91068 8.56867,-5.69275 13.43353,-7.22633 0.26081,-0.1509 0.52192,-0.30129 0.78244,-0.4527 0.60192,-0.34982 2.434,-1.35283 1.83015,-1.00634 -14.24784,8.17549 -9.47979,5.55539 -6.35228,3.36414 4.08961,-2.84759 0.61184,-0.46579 10.91968,-6.4026 0.30759,-0.17715 0.61044,-0.3628 0.92291,-0.53118 0.28573,-0.15397 1.15141,-0.5988 0.87093,-0.43546 -3.80602,2.21651 -20.19026,11.52676 1.84674,-1.01529 2.31369,-0.82724 4.58933,-1.75187 6.92602,-2.51592 2.49305,-0.43913 4.86034,-1.30911 7.26457,-2.08297 1.99129,-0.51856 3.83548,-1.51274 5.70408,-2.3703 0.6963,-0.18388 1.27812,-0.59465 1.91802,-0.90578 0,0 -8.27319,6.61006 -8.27319,6.61006 l 0,0 c -0.62438,0.31204 -1.26271,0.58533 -1.90438,0.86034 -1.85542,0.86121 -3.73744,1.69994 -5.71996,2.22329 -2.39638,0.78008 -4.80686,1.47991 -7.25044,2.09108 -2.31006,0.81474 -4.63045,1.64029 -6.8567,2.66104 14.9001,-8.66803 6.32117,-3.66318 -1.86503,1.03292 -3.13806,1.80017 -8.17723,4.57939 6.20416,-3.70194 0.32903,-0.18947 -0.63534,0.4159 -0.95301,0.62384 -4.44708,3.31143 -9.32593,6.07197 -14.32629,8.45154 -3.81638,1.61116 -10.98226,5.96879 4.72029,-3.05151 -4.69961,2.70419 -9.23257,5.57305 -14.17335,7.77345 0,0 8.27958,-6.62287 8.27958,-6.62287 z"
         id="path3370"
         style="fill:#000000" />
      <path
         inkscape:connector-curvature="0"
         d="m 448.27296,408.22271 c 1.64241,-0.34429 3.0189,-1.3344 4.54526,-1.96993 3.08696,-1.92559 7.59778,-4.33934 -7.39511,4.23101 -0.20202,0.11548 0.39884,-0.2402 0.59204,-0.3699 0.54736,-0.36743 0.73987,-0.53951 1.26275,-0.95689 1.31641,-1.04127 2.63433,-2.08079 3.90046,-3.18352 2.02928,-1.68443 4.04433,-3.38316 5.93473,-5.22335 1.84835,-1.79903 3.64525,-3.65211 5.39713,-5.54515 1.46455,-1.83776 3.12619,-3.5041 4.82004,-5.12885 1.25938,-1.17234 2.46104,-2.40173 3.73321,-3.56085 0.94945,-1.01669 1.82922,-2.09805 2.71406,-3.17117 0.49665,-0.53324 0.25248,-0.26044 0.73218,-0.81871 0,0 9.80423,-4.0546 9.80423,-4.0546 l 0,0 c -0.55012,0.4575 -0.29606,0.19632 -0.75369,0.79169 -1.04166,0.94634 -1.83526,2.15289 -2.74324,3.2241 -0.76568,0.80658 -1.66507,1.46706 -2.44197,2.25888 -0.21785,0.22203 -0.37153,0.50191 -0.59191,0.72142 -0.2255,0.22461 -0.49278,0.40294 -0.73917,0.60441 -1.67519,1.63487 -3.44767,3.18151 -4.87448,5.04969 -0.78708,0.97461 -1.70515,1.73803 -2.54514,2.66026 -0.93378,1.02521 -1.80469,2.09836 -2.88948,2.98269 -1.82203,1.87563 -3.80569,3.56629 -5.7727,5.28388 -2.50763,1.82954 1.064,-0.84355 -1.29469,1.14596 -0.20715,0.17472 -0.47133,0.27189 -0.68248,0.44176 -0.64002,0.51492 -1.18184,1.16847 -1.9232,1.56504 -3.66397,3.2699 -8.14493,5.43089 -12.52224,7.6246 -1.50385,0.74544 -3.01873,1.45704 -4.64436,1.90618 0,0 8.37777,-6.50865 8.37777,-6.50865 z"
         id="path3372"
         style="fill:#000000" />
      <path
         inkscape:connector-curvature="0"
         d="m 437.79842,326.8475 c 1.37703,1.16877 3.11047,1.60703 4.7272,2.29535 1.16936,0.46205 2.39533,0.8484 3.48729,1.47781 1.04296,0.39662 1.95793,1.03413 2.94897,1.53853 0.54128,0.47665 1.26227,0.57838 1.88503,0.8704 0.78219,0.36679 1.4902,0.83344 2.29564,1.17218 0.8472,0.50232 1.84156,0.62364 2.7462,0.95559 0.9174,0.33664 1.81993,0.86572 2.6884,1.3112 1.59536,0.81934 3.09456,1.82968 4.6624,2.71851 1.09741,0.53572 2.16457,1.11749 3.25097,1.67436 1.39637,0.86768 2.84415,1.63243 4.29583,2.40147 0.22889,0.10224 0.45779,0.20448 0.68668,0.30671 0,0 -8.8103,5.8289 -8.8103,5.8289 l 0,0 c -0.23652,-0.11591 -0.47303,-0.23182 -0.70955,-0.34773 -1.46631,-0.75978 -2.86046,-1.64163 -4.33851,-2.3797 -1.07518,-0.58859 -2.17526,-1.12878 -3.24012,-1.73713 -1.51221,-0.9212 -3.00087,-1.8994 -4.5877,-2.68202 -1.76755,-0.86201 -3.59663,-1.49576 -5.42419,-2.21365 -1.43551,-0.66465 -2.86442,-1.34509 -4.26529,-2.0765 -0.97284,-0.53463 -1.94704,-1.06047 -2.95585,-1.52439 -1.11864,-0.50871 -2.25034,-0.98252 -3.3963,-1.42602 -1.66274,-0.66298 -3.28958,-1.36647 -4.80406,-2.3361 0,0 8.85726,-5.82777 8.85726,-5.82777 z"
         id="path3376"
         style="fill:#000000" />
      <path
         inkscape:connector-curvature="0"
         d="m 478.38871,351.03016 c 0.55737,1.74237 1.31138,3.40578 1.97247,5.10768 0.35047,1.30779 0.83216,2.57744 1.15104,3.894 0.28137,1.34411 0.31255,2.72123 0.33965,4.08897 0.0246,1.33428 -0.0689,2.66354 0.17219,3.98102 0.26745,1.19122 0.33669,2.40652 0.64812,3.58709 0.23591,1.1629 0.51669,2.30201 0.83779,3.44397 0.17402,0.75587 0.0885,0.40842 0.25209,1.04346 0,0 -9.35735,5.0346 -9.35735,5.0346 l 0,0 c -0.12716,-0.63965 -0.0584,-0.30206 -0.20729,-1.01257 -0.31081,-1.14767 -0.64263,-2.27471 -0.84038,-3.44953 -0.33245,-1.20588 -0.44077,-2.42916 -0.67934,-3.65566 -0.28395,-1.37765 -0.26523,-2.75054 -0.24293,-4.15445 -0.0172,-1.2976 -0.0283,-2.60341 -0.25162,-3.88559 -0.27598,-1.28383 -0.76429,-2.50598 -1.04917,-3.78785 -0.62615,-1.72504 -1.33179,-3.42466 -2.03807,-5.11719 0,0 9.2928,-5.11795 9.2928,-5.11795 z"
         id="path3378"
         style="fill:#000000" />
      <path
         inkscape:connector-curvature="0"
         d="m 448.45637,322.10477 c 1.85551,0.006 3.74896,0.0939 5.53375,0.63518 1.24279,0.28593 2.39926,0.79498 3.61225,1.1662 1.07694,0.40089 2.21546,0.66898 3.29676,1.06834 1.26818,0.37103 2.55628,0.56197 3.70691,1.2433 0.98084,0.54632 2.07947,0.76256 3.12908,1.14319 1.05664,0.32524 2.0407,0.85167 3.02843,1.34469 0.16041,0.0586 0.33195,0.0928 0.48122,0.17571 0.40961,0.22757 0.75987,0.55191 1.16757,0.78288 0.59585,0.33756 1.23565,0.54797 1.83865,0.87408 1.0833,0.44202 2.06836,1.05301 3.21134,1.33644 1.2451,0.43692 2.4851,0.80144 3.65339,1.42876 1.0961,0.55206 2.13822,1.20061 3.21319,1.79506 0.80233,0.72576 1.82153,1.08 2.79189,1.51722 1.11233,0.50963 2.06652,1.24707 3.05742,1.94791 0.82036,0.67745 1.52049,1.4823 2.32071,2.17941 0.973,0.53045 1.75913,1.29134 2.51836,2.0882 0.87082,0.97941 1.61623,2.0402 2.30994,3.15034 0.52609,0.97317 1.02512,1.95643 1.54094,2.93545 0.57976,1.18121 0.70751,2.48919 0.79568,3.78232 0.0685,1.4216 0.0589,2.84547 0.0569,4.26828 0.0836,1.34173 -0.0932,2.64413 -0.4283,3.93868 -0.40074,1.03923 -0.74712,2.09345 -1.15287,3.1305 -0.33093,1.08678 -0.74088,2.14071 -1.06122,3.23109 -0.30877,1.05866 -0.94579,1.92403 -1.60214,2.78579 -0.70529,0.74423 -1.34826,1.55279 -2.20765,2.12481 -0.90226,0.71469 -1.82168,1.4121 -2.66325,2.19866 -3.1306,2.46357 -8.03281,4.78014 -10.59421,6.20525 -0.57788,0.32151 -1.32179,0.3487 -1.95684,0.32613 -0.20282,-0.0245 -0.40565,-0.049 -0.60847,-0.0736 0,0 8.60038,-6.20241 8.60038,-6.20241 l 0,0 c 0.17541,-0.0112 0.35083,-0.0224 0.52624,-0.0336 0.788,-0.20061 2.26448,-0.97136 1.70151,-0.6411 -14.9045,8.74387 -10.70885,6.02796 -7.50221,4.39305 0.92205,-0.6926 1.70889,-1.55378 2.6359,-2.24328 0.75274,-0.64792 1.69495,-1.04879 2.2704,-1.96857 0.76341,-0.6251 1.40025,-1.49614 1.78176,-2.40164 0.25917,-0.53521 0.32511,-1.06911 0.51616,-1.62908 0.11457,-0.33581 0.31628,-0.63768 0.42965,-0.9739 0.0654,-0.19389 0.0869,-0.3999 0.13029,-0.59986 0.32575,-1.07289 0.80666,-2.08007 1.14258,-3.15044 0.56574,-1.10077 0.6451,-2.39969 0.61921,-3.61737 0.003,-1.40223 0.0134,-2.80505 -0.0344,-4.2067 -0.0582,-1.14437 -0.11357,-2.31776 -0.60523,-3.37383 -0.50255,-0.95725 -0.98823,-1.91846 -1.4942,-2.87334 -0.64855,-1.04552 -1.33221,-2.05565 -2.17788,-2.95546 -0.77642,-0.7584 -1.62378,-1.40616 -2.51318,-2.02776 -0.73976,-0.70552 -1.45127,-1.44145 -2.24914,-2.08373 -0.92466,-0.68997 -1.88921,-1.31037 -2.95023,-1.77505 -0.98178,-0.4742 -1.98814,-0.88755 -2.83638,-1.59363 -1.03671,-0.61376 -2.08356,-1.21832 -3.16408,-1.7498 -1.15724,-0.51916 -2.36084,-0.8927 -3.56754,-1.2794 -1.14041,-0.40848 -2.20406,-0.99716 -3.30394,-1.50115 -1.18786,-0.57563 -2.32272,-1.23131 -3.50511,-1.81368 -0.94925,-0.48776 -1.93758,-0.9083 -2.95208,-1.23999 -1.08291,-0.3901 -2.22335,-0.63008 -3.20657,-1.26192 -1.15904,-0.50433 -2.40704,-0.6955 -3.59926,-1.1054 -1.11959,-0.31575 -2.19803,-0.73198 -3.31043,-1.06906 -1.16664,-0.42405 -2.34161,-0.8047 -3.54175,-1.12682 -1.77737,-0.37943 -3.58857,-0.49462 -5.40363,-0.3962 0,0 8.57371,-6.22916 8.57371,-6.22916 z"
         id="path3380"
         style="fill:#000000" />
      <path
         inkscape:connector-curvature="0"
         d="m 474.8944,347.21124 c 0.92053,1.52956 1.93812,2.99909 2.84276,4.53882 0.86577,1.2683 1.3413,2.72519 1.92171,4.13134 0.34202,1.16061 0.8141,2.27662 1.11965,3.44832 0.15516,0.80333 0.0641,0.4281 0.26188,1.12834 0,0 -9.30312,5.08653 -9.30312,5.08653 l 0,0 c -0.24683,-0.78686 -0.15486,-0.3947 -0.28294,-1.1748 -0.26515,-1.13464 -0.74869,-2.19414 -1.03876,-3.32161 -0.54341,-1.36918 -0.97154,-2.79146 -1.81407,-4.01938 -0.86473,-1.50071 -1.81283,-2.96381 -2.81238,-4.37551 0,0 9.10527,-5.44205 9.10527,-5.44205 z"
         id="path3382"
         style="fill:#000000" />
      <path
         inkscape:connector-curvature="0"
         d="m 461.08101,387.36587 c -2.78387,1.59288 -5.5634,3.19336 -8.35161,4.77863 -0.27497,0.15634 0.5411,-0.32778 0.81162,-0.4917 0.2845,-0.1724 0.56584,-0.35013 0.85345,-0.51728 3.74271,-2.17522 7.63167,-4.7952 11.71369,-6.59661 0.2713,-0.15731 0.53864,-0.32166 0.8139,-0.47193 0.49449,-0.26996 0.9855,-0.54626 1.48023,-0.81576 0.23327,-0.12708 0.94419,-0.4864 0.71443,-0.35309 -9.85221,5.71675 -11.09607,6.51398 -7.87414,4.4784 26.13144,-14.97582 0.72471,-0.3786 1.07036,-0.59609 3.11578,-1.96049 6.39726,-3.64541 9.55768,-5.5331 2.84761,-1.70084 -5.73514,3.33414 -8.61914,4.97252 -0.18026,0.10241 0.36905,-0.27827 0.83076,-0.60062 0.73882,-0.72357 1.66791,-1.19008 2.46434,-1.84053 12.38785,-7.22655 12.69545,-7.38525 0.87141,-0.56472 0,0 9.88002,-3.87931 9.88002,-3.87931 l 0,0 c -12.35678,7.2459 -12.65475,7.41697 -0.88479,0.5288 -0.85079,0.56446 -1.58065,1.28519 -2.50237,1.74819 -0.40989,0.45757 -0.27481,0.3766 -0.80034,0.68934 -3.15681,1.8786 -6.49173,3.4827 -9.48157,5.61705 -2.68645,1.91779 11.44398,-6.58402 8.56774,-4.9647 -1.69082,0.95194 -22.28845,12.90616 -1.08301,0.60595 -4.36831,2.57921 -8.69586,5.24785 -13.23049,7.52855 -0.3039,0.15328 -0.61108,0.30024 -0.91171,0.45984 -5.28249,2.80449 11.39808,-6.7369 6.39712,-3.68079 -0.2632,0.16085 -0.53335,0.31006 -0.80026,0.46469 -3.25548,1.88598 -6.51127,3.77143 -9.7669,5.65715 0,0 8.27958,-6.62288 8.27958,-6.62288 z"
         id="path3384"
         style="fill:#000000" />
      <path
         inkscape:connector-curvature="0"
         d="m 458.93815,372.36587 c -2.78387,1.59288 -5.56339,3.19336 -8.35161,4.77863 -0.27497,0.15634 0.53721,-0.33437 0.81162,-0.4917 3.28394,-1.8829 6.55579,-3.78743 9.86316,-5.62886 2.77334,-1.5441 -10.98392,6.36803 -8.26093,4.73679 1.51611,-0.90825 22.49969,-12.95053 1.32165,-0.78818 5.89116,-3.65794 19.52443,-11.24387 1.60255,-1.01668 -1.2044,0.68729 1.09881,-0.72002 1.33793,-0.90493 3.5541,-2.89812 7.40601,-4.60739 11.60985,-7.01162 0,0 -8.29056,6.62234 -8.29056,6.62234 l 0,0 c 19.57187,-11.36761 8.7266,-5.66318 6.54998,-3.51052 -0.59074,0.39069 -0.30962,0.16772 -0.83928,0.67401 -3.122,2.29586 -6.71681,3.86783 -10.04629,5.85085 -2.8125,1.67511 5.65229,-3.304 8.48667,-4.94181 0.197,-0.11383 -0.38259,0.24633 -0.57388,0.3695 -3.2094,1.89087 -6.51137,3.63276 -9.62821,5.67261 -2.67648,1.75167 11.0885,-6.38379 8.30545,-4.80692 -3.27636,1.85638 -6.49602,3.81232 -9.78543,5.64548 -2.75263,1.53403 5.44996,-3.16527 8.17492,-4.74795 0.26674,-0.15492 -0.53352,0.30979 -0.80027,0.46469 -3.25563,1.88571 -6.51127,3.77143 -9.7669,5.65715 0,0 8.27958,-6.62288 8.27958,-6.62288 z"
         id="path3386"
         style="fill:#000000" />
      <path
         inkscape:connector-curvature="0"
         d="m 456.08101,363.08016 c -27.85545,15.95121 23.92208,-13.99324 -4.72739,2.48748 1.03132,-0.58343 1.9283,-1.34557 2.84662,-2.08309 0.98589,-0.82288 2.03568,-1.56517 2.99701,-2.41702 0.68883,-0.54847 1.29103,-1.19224 1.94388,-1.78053 0,0 9.7928,-4.09408 9.7928,-4.09408 l 0,0 c -0.56715,0.71008 -1.30512,1.23602 -1.90201,1.92086 -1.0315,0.76135 -1.94293,1.67904 -2.99529,2.41828 -0.93148,0.75593 -1.79535,1.58945 -2.83707,2.19152 -21.32329,12.4878 -5.2046,3.03722 -1.34717,0.81682 0.25413,-0.14628 -0.49728,0.31136 -0.73733,0.47975 -1.38926,0.97448 -0.0846,0.1787 -1.54673,1.02573 -3.25548,1.88599 -6.51127,3.77144 -9.7669,5.65715 0,0 8.27958,-6.62287 8.27958,-6.62287 z"
         id="path3388"
         style="fill:#000000" />
      <path
         inkscape:connector-curvature="0"
         d="m 450.36672,351.65159 c -2.78387,1.59287 -5.56339,3.19336 -8.3516,4.77862 -0.27498,0.15634 0.54109,-0.32777 0.81161,-0.4917 0.2845,-0.1724 0.56584,-0.35012 0.85346,-0.51728 3.27763,-1.90492 6.59992,-3.73424 9.84212,-5.69886 2.71166,-1.64313 -5.49159,3.17099 -8.25011,4.73418 -0.23675,0.13416 0.4557,-0.29759 0.68355,-0.44638 0.71601,-0.46389 1.39762,-0.97992 2.03806,-1.54269 0,0 9.83549,-3.95705 9.83549,-3.95705 l 0,0 c -0.70421,0.53055 -1.31968,1.15652 -2.03582,1.67761 -5.86547,3.59501 -19.63556,11.363 -2.30438,1.43007 0.55417,-0.3176 -1.08237,0.67901 -1.63506,0.9992 -3.25548,1.88598 -6.51126,3.77144 -9.7669,5.65715 0,0 8.27958,-6.62287 8.27958,-6.62287 z"
         id="path3390"
         style="fill:#000000" />
      <path
         inkscape:connector-curvature="0"
         d="m 430.36672,349.50873 c -18.73342,10.61149 -1.31598,0.801 4.92607,-2.62752 0.26119,-0.12228 1.03277,-0.51199 0.78357,-0.36684 -20.03415,11.66858 -0.77925,0.36936 1.89969,-1.05815 2.89827,-1.54438 -11.34793,6.61451 -8.55146,4.89264 3.13759,-1.93191 6.38355,-3.68204 9.57532,-5.52306 0.18507,-0.0676 0.38024,-0.1123 0.55522,-0.2029 0.3194,-0.16538 1.23512,-0.7377 0.92392,-0.55736 -13.91212,8.06245 -10.92371,6.49432 -7.82905,4.40238 0.85307,-0.75845 1.78681,-1.41952 2.71105,-2.08712 0.88926,-0.7208 1.82817,-1.372 2.74688,-2.058 0,0 9.8191,-3.98746 9.8191,-3.98746 l 0,0 c -0.81282,0.81461 -1.76294,1.46729 -2.74015,2.0591 -0.80269,0.81665 -1.8102,1.36037 -2.7041,2.07148 -0.41195,0.46113 -0.25798,0.36039 -0.7843,0.6713 -3.67294,2.16968 -7.18153,4.43501 -10.94421,6.35003 21.65956,-12.53127 0.30756,-0.16752 -1.04887,0.57181 -2.86338,1.56067 5.64581,-3.26547 8.46676,-4.9016 0.20686,-0.11998 -0.41712,0.23404 -0.62449,0.35314 -10.04657,5.77004 -6.37925,3.8856 -10.47087,5.97014 -0.2578,0.12959 -1.37758,0.69286 -1.63031,0.81848 -0.29568,0.14697 -1.1722,0.60691 -0.88846,0.43805 2.68557,-1.59821 5.39794,-3.15095 8.09628,-4.7275 0.26634,-0.15561 -0.53351,0.30979 -0.80027,0.46468 -3.25563,1.88572 -6.51126,3.77144 -9.7669,5.65716 0,0 8.27958,-6.62288 8.27958,-6.62288 z"
         id="path3392"
         style="fill:#000000" />
      <path
         inkscape:connector-curvature="0"
         d="m 424.65243,343.08016 c -18.42652,11.1782 -1.77395,-0.0395 4.85173,-2.50507 0.75956,-0.3282 1.60068,-0.31694 2.39085,-0.496 0.62427,-0.14146 1.22923,-0.39315 1.85792,-0.53777 0.20918,-0.0344 0.42431,-0.043 0.62755,-0.10333 0.35742,-0.10603 0.67777,-0.31555 1.03289,-0.42904 0.5737,-0.18332 1.08863,-0.23106 1.63036,-0.50537 6.07238,-2.21483 -28.77165,15.14808 1.86915,-0.98688 2.94129,-1.54884 -5.76794,3.30622 -8.65676,4.95084 -0.15217,0.0866 0.29766,-0.18447 0.44649,-0.2767 0,0 9.90729,-3.80404 9.90729,-3.80404 l 0,0 c -3.8815,2.08939 3.78917,-2.04538 -9.99433,5.74272 -2.88893,1.63234 5.74653,-3.31953 8.62023,-4.97854 0.15038,-0.0868 -0.29925,0.17621 -0.45024,0.26195 -9.70627,5.51238 -6.13972,4.15481 -10.0958,5.62598 -1.12701,0.28552 -2.20412,0.72622 -3.35024,0.93862 -1.37314,0.37794 -2.79456,0.57505 -4.11625,1.12308 -0.95214,0.43248 -0.65318,0.28144 -1.60609,0.77815 -0.28488,0.1485 -1.12914,0.61299 -0.85207,0.45039 2.71777,-1.59499 5.44996,-3.16527 8.17491,-4.74795 0.26674,-0.15493 -0.53351,0.30979 -0.80027,0.46468 -3.25563,1.88572 -6.51126,3.77144 -9.76689,5.65715 0,0 8.27957,-6.62287 8.27957,-6.62287 z"
         id="path3394"
         style="fill:#000000" />
      <path
         inkscape:connector-curvature="0"
         d="m 175.65556,491.8475 c 1.66481,0.85064 3.48377,1.27247 5.32179,1.53274 1.42298,0.10877 2.8867,0.25595 4.20458,0.83492 1.19972,0.79915 1.4625,2.13306 1.61831,3.47098 0.14111,1.27334 -0.0894,2.54023 -0.54443,3.72833 -0.16627,0.89787 -0.97979,1.6404 -1.02764,2.55523 0.15439,0.0306 0.16873,-0.3817 0.21833,-0.44794 0.0662,-0.0884 0.3711,-0.23905 0.2749,-0.18485 -8.71943,4.91321 -11.59941,6.93574 -8.44529,4.7393 3.58354,-2.89183 7.42782,-5.80446 11.92245,-7.07244 1.08897,-0.68788 2.3446,-0.85762 3.59982,-0.96892 1.38358,-0.13606 2.71618,-0.11093 4.06602,0.20352 1.35438,0.46018 2.30953,1.53038 3.34917,2.45043 0.82655,0.89885 1.50079,1.9131 1.91978,3.06123 0.3603,1.25325 0.52896,2.53114 0.0379,3.76214 -0.14341,0.13468 -0.5113,1.43254 -0.77747,1.37845 -0.0782,-0.0159 0.0212,-0.17599 0.085,-0.22395 0.11085,-0.002 0.22467,-0.0303 0.33255,-0.005 0.31712,0.075 0.6023,0.25359 0.91628,0.34081 0.55814,0.15504 1.06389,0.21523 1.60657,0.43376 1.25399,0.49614 2.48164,1.14191 3.62312,1.8633 1.07333,0.4584 2.01105,1.11496 2.97564,1.75684 1.025,0.84404 1.3825,2.07272 1.48466,3.34805 -0.11724,1.22115 -0.2945,2.44178 -0.48763,3.65427 -0.24469,1.14121 -0.58307,2.2436 -1.23661,3.21728 -2.91608,2.99268 -5.51629,3.15398 -10.25895,6.28078 -2.7749,1.82947 11.46862,-6.72263 8.63992,-4.97749 -8.44044,5.20724 -6.10122,4.39783 -10.05404,5.69739 -3.55451,1.77841 0.0328,-0.004 8.15524,-4.69831 0.0757,-0.0437 -0.16346,0.11174 -0.24734,0.0871 -0.19493,-0.0572 -0.44821,-0.50114 -0.0173,-0.60116 0.95442,0.42106 1.96169,0.62712 2.94261,0.98569 1.25488,0.66151 1.64237,1.91934 1.87154,3.22567 0.19752,1.26221 -0.0209,2.5234 -0.46856,3.70721 -0.36702,1.06375 -0.77258,2.10998 -1.17598,3.16079 -0.40037,1.01392 -0.90505,1.89395 -1.60263,2.72427 -0.41118,0.55455 -0.81886,1.09224 -1.1564,1.6959 0,0 -9.7204,4.26201 -9.7204,4.26201 l 0,0 c 0.42711,-0.55347 0.58894,-1.25509 1.14836,-1.71346 0.29068,-0.5207 0.58136,-0.73197 0.9713,-1.14607 0.33744,-0.35834 0.27963,-0.5001 0.46468,-0.95579 0.0676,-0.16639 0.15458,-0.32422 0.23187,-0.48633 0.58522,-0.93387 0.85096,-2.05991 1.21008,-3.09361 0.44122,-1.01464 0.88064,-2.06524 0.73569,-3.2017 -0.1271,-0.96484 -0.26324,-1.89304 -1.29855,-2.2431 -0.96202,-0.33573 -1.96405,-0.54333 -2.92345,-0.88795 -0.35751,-0.18446 -1.6523,-1.24119 -0.87656,-1.70392 3.13994,-1.87297 6.33464,-3.65272 9.51616,-5.45415 0.17682,-0.10012 0.37091,-0.16605 0.55637,-0.24907 0.1543,-0.0875 0.61625,-0.35182 0.46289,-0.26263 -2.87075,1.66961 -11.46516,6.70863 -8.61511,5.00391 3.14785,-1.88286 6.27998,-3.79764 9.50861,-5.53835 2.92505,-1.57703 -5.73057,3.36634 -8.59732,5.04702 -0.2865,0.16798 1.18298,-0.66179 0.78548,-0.61298 0.97245,-0.5732 1.21793,-1.6439 1.49728,-2.67637 0.36115,-1.106 0.2644,-2.31431 0.58259,-3.44033 0.13066,-0.94408 -0.18261,-1.87464 -0.97199,-2.44296 -0.9299,-0.65222 -1.92721,-1.17158 -2.92135,-1.71726 -1.1283,-0.63756 -2.25863,-1.29699 -3.51105,-1.65938 -1.00227,-0.25351 -2.01293,-0.49427 -2.97684,-0.86922 -1.28281,-1.10595 -0.6768,-1.42861 -0.0752,-2.62612 0.15723,-0.26267 0.38557,-0.48675 0.49865,-0.77123 0.27957,-0.70336 -0.054,-1.54387 -0.1511,-2.24758 -0.32489,-0.99235 -0.92929,-1.8557 -1.64541,-2.6102 -0.89653,-0.83539 -1.77367,-1.74364 -3.03411,-1.96727 -1.27867,-0.19874 -2.57813,-0.0826 -3.85766,0.0698 -1.21657,0.21619 -2.3325,0.64604 -3.4502,1.16677 -3.50701,1.74164 -0.70338,0.36505 7.94334,-4.6837 0.78428,-0.45793 -2.37999,1.39566 -1.6415,1.33684 -3.32384,2.2563 -1.59879,1.09842 -9.83389,5.7012 -0.61183,0.34197 -1.26481,-0.46468 -1.49189,-0.91507 -0.34114,-1.23485 0.34595,-2.02185 0.78457,-3.1165 0.45259,-1.03765 0.89606,-2.11051 0.789,-3.27285 -0.0741,-0.91132 -0.0666,-2.02176 -1.0257,-2.44598 -1.3238,-0.37673 -2.67677,-0.54651 -4.04082,-0.70711 -1.91457,-0.36894 -3.78136,-0.92538 -5.55002,-1.75815 0,0 8.85726,-5.82777 8.85726,-5.82777 z"
         id="path3400"
         style="fill:#000000" />
    </g>
    <path
       style="fill:#ffff00"
       d="m 84.581494,190.95465 c -1.646784,-1.5599 -1.717513,-1.58718 -4.107143,-1.58375 -1.836243,0.002 -2.899208,0.22122 -4.341967,0.89286 -1.050755,0.48915 -1.965511,0.88936 -2.032792,0.88936 -0.06728,0 -0.03184,-1.08482 0.07876,-2.41071 0.262866,-3.15142 -0.413567,-4.8987 -2.182604,-5.63785 -0.68826,-0.28758 -1.6634,-0.52286 -2.166977,-0.52286 -0.503577,0 -1.913246,-0.33609 -3.132597,-0.74686 -1.686743,-0.56822 -2.366258,-0.65364 -2.841031,-0.35714 -1.014146,0.63334 -1.055486,0.46401 -0.231831,-0.94958 0.487929,-0.8374 2.198323,-2.3738 4.564236,-4.09992 2.081131,-1.51835 5.873161,-4.46737 8.426733,-6.55338 5.692712,-4.65035 5.587758,-4.58275 19.642857,-12.65156 13.534417,-7.76989 28.996997,-17.04754 52.678567,-31.60749 37.62774,-23.13436 41.39591,-25.783493 54.7422,-38.485379 4.17666,-3.974996 12.50837,-11.839716 18.5149,-17.477154 9.67859,-9.083847 15.75773,-15.21603 23.0417,-23.242755 l 2.19164,-2.415135 4.02632,1.418234 c 2.21447,0.780029 4.8443,1.940181 5.84407,2.578115 0.99976,0.637934 3.82668,2.226097 6.28203,3.529252 2.45536,1.303155 7.49166,4.072218 11.19178,6.153473 l 6.72749,3.784101 -3.64956,3.865158 c -2.00727,2.125836 -4.63016,5.150872 -5.82865,6.7223 -4.32151,5.666225 -8.69046,10.500497 -16.79747,18.586497 -8.12687,8.105814 -17.81146,17.070753 -22.35787,20.696473 -5.92991,4.72904 -20.12246,12.40977 -43.21429,23.38673 -4.22321,2.00755 -9.92857,4.86071 -12.67857,6.34035 -4.04863,2.17837 -34.74535,19.58826 -51.96429,29.47195 -3.54511,2.03491 -9.76424,6.0615 -16.96428,10.9836 -3.44211,2.35309 -14.774938,8.21297 -15.883642,8.21297 -0.367762,0 -1.846176,0.63391 -3.285366,1.40867 l -2.616709,1.40868 -1.675639,-1.58725 z"
       id="path3359"
       inkscape:connector-curvature="0"
       transform="translate(0,786.61418)" />
    <path
       style="fill:#000000"
       id="path3363"
       d="m 278.44651,895.33335 c 0.49675,-0.67905 1.04355,-1.32153 1.53671,-2.00277 0.32972,-0.49111 0.6539,-0.98968 1.05862,-1.42282 0.39329,-0.31949 0.81364,-0.6039 1.18565,-0.94858 0.41091,-0.29923 0.82712,-0.5909 1.23861,-0.89087 0.3886,-0.32058 0.73285,-0.68797 1.10501,-1.02618 1.551,-1.6483 3.56987,-3.09895 5.82038,-3.51377 0.24338,-0.14613 0.51286,-0.21761 0.78459,-0.2874 0,0 -4.19235,3.24516 -4.19235,3.24516 l 0,0 c -0.26123,0.0979 -0.51744,0.21022 -0.78708,0.2838 -1.78066,0.79236 -0.1277,0.0678 4.04968,-2.39267 0.0723,-0.0426 -0.1567,0.062 -0.22836,0.10551 -0.28496,0.17313 -0.12033,0.12079 -0.35662,0.35797 -0.0579,0.0581 -0.12951,0.10088 -0.19427,0.15131 -0.31309,0.39762 -0.71567,0.72829 -1.08883,1.06515 -0.33447,0.38039 -0.77991,0.69021 -1.22701,0.9194 -0.41344,0.29702 -0.75377,0.68349 -1.18078,0.96547 -0.53026,0.27063 -0.7856,0.81402 -1.14832,1.26396 -0.4281,0.73412 -1.06455,1.31211 -1.49831,2.04356 0,0 -4.87732,2.08377 -4.87732,2.08377 z"
       inkscape:connector-curvature="0" />
    <path
       style="fill:#ffff00"
       d="m 94.64999,228.16231 c 0,-0.26994 0.2535,-1.19405 0.563333,-2.05357 0.661021,-1.83376 0.758912,-5.07128 0.19618,-6.48823 -0.217752,-0.5483 -0.855519,-1.26068 -1.417259,-1.58308 l -1.021346,-0.58617 1.121068,-1.12106 c 1.306786,-1.30679 1.876747,-2.97567 2.197682,-6.43493 0.333909,-3.59911 -0.18867,-4.62055 -3.470905,-6.78429 -1.448171,-0.95466 -3.292189,-1.98662 -4.097817,-2.29323 -1.23985,-0.47188 -1.421941,-0.66717 -1.185816,-1.27177 0.153429,-0.39286 0.291947,-1.4375 0.307817,-2.32143 l 0.02885,-1.60714 5.97839,-3.02329 c 5.289798,-2.67507 9.389898,-5.24477 21.232998,-13.30762 1.12218,-0.76399 7.22932,-4.32353 13.57143,-7.91011 6.3421,-3.58657 17.1561,-9.74166 24.0311,-13.67797 17.86094,-10.22638 19.60364,-11.15138 35.5934,-18.89261 22.32953,-10.81054 29.34586,-14.64081 41.19232,-22.48717 9.9292,-6.57648 15.23866,-11.00346 29.82574,-24.868365 7.52395,-7.151469 14.51892,-14.749914 21.22703,-23.058342 2.09841,-2.599011 3.95101,-4.809354 4.11689,-4.911873 0.16588,-0.102518 0.54212,-0.0941 0.83609,0.01871 0.45674,0.175268 0.55793,2.084709 0.69561,13.126158 0.1462,11.724515 0.23189,13.195648 0.9254,15.886308 0.42035,1.630889 0.86468,3.819482 0.98739,4.86354 l 0.2231,1.898289 -1.56148,1.080657 c -0.85882,0.59437 -1.96327,1.51601 -2.45434,2.0481 -0.49107,0.53209 -2.33929,1.69406 -4.10714,2.58215 -2.75732,1.38514 -3.74079,2.15184 -6.91763,5.39282 -2.03684,2.07796 -4.84346,5.15182 -6.23694,6.83079 -5.92517,7.1391 -12.12508,12.33003 -18.20096,15.23889 -1.41517,0.67752 -3.45697,1.87944 -4.53733,2.67092 -1.08036,0.79149 -2.92857,2.09782 -4.10714,2.90295 -1.17858,0.80514 -2.746,2.0001 -3.48318,2.65548 -0.73717,0.65537 -1.56649,1.19159 -1.84292,1.19159 -0.27644,0 -1.28044,0.61273 -2.23112,1.36162 -0.95067,0.7489 -2.93386,2.17952 -4.40707,3.17916 -1.47321,0.99964 -3.54335,2.5633 -4.6003,3.47479 -1.05694,0.9115 -2.42301,1.91633 -3.03571,2.23296 -2.46835,1.2756 -12.1063,8.20067 -16.29256,11.70655 -1.66965,1.39828 -3.67857,3.00125 -4.46429,3.56216 -0.78571,0.56091 -1.99107,1.54497 -2.67857,2.1868 -1.4467,1.35059 -5.85194,4.13096 -10.71429,6.76232 -5.39229,2.91815 -9.56823,5.42796 -13.10711,7.87759 -1.80713,1.25091 -3.88402,2.52438 -4.61532,2.82993 -0.7313,0.30556 -1.98488,1.09146 -2.78574,1.74646 -1.76787,1.44587 -7.46156,4.794 -11.63468,6.84167 -1.08036,0.53011 -3.57143,2.01252 -5.53572,3.29424 -4.5823,2.99 -8.62538,5.44375 -8.96975,5.44375 -0.14834,0 -1.88727,0.9113 -3.86427,2.0251 -1.977,1.11381 -5.52312,3.11072 -7.88026,4.43758 -2.35715,1.32686 -5.8125,3.10172 -7.67857,3.94413 -1.86608,0.84241 -4.67858,2.27621 -6.25,3.18623 -4.88284,2.82765 -9.94457,5.55779 -11.25,6.06791 -0.6875,0.26865 -2.73202,1.41912 -4.543376,2.55661 -1.811355,1.13749 -3.37832,2.06815 -3.482143,2.06815 -0.103824,0 -0.188771,-0.22086 -0.188771,-0.49081 z"
       id="path3369"
       inkscape:connector-curvature="0"
       transform="translate(0,786.61418)" />
    <path
       style="fill:#000000"
       id="path3371"
       d="m 317.67221,817.82485 c 0.52136,0.32034 1.00984,0.68502 1.50455,1.04359 0.29274,0.30178 0.67612,0.4798 0.99113,0.75309 0.28672,0.22323 0.56396,0.46783 0.80911,0.73728 0.23334,0.30461 0.41803,0.63693 0.60384,0.9717 0.12794,0.19292 0.28163,0.36223 0.42404,0.54381 0,0 -3.22205,1.9245 -3.22205,1.9245 l 0,0 c -0.15759,-0.19513 -0.31895,-0.38574 -0.45432,-0.59773 -0.17085,-0.30726 -0.33691,-0.61495 -0.55752,-0.89044 -0.24535,-0.24887 -0.50535,-0.48498 -0.783,-0.69738 -0.32391,-0.24831 -0.67664,-0.45912 -0.96966,-0.74649 -0.46907,-0.36139 -0.94619,-0.71486 -1.47763,-0.98151 0,0 3.13151,-2.06042 3.13151,-2.06042 z"
       inkscape:connector-curvature="0" />
    <path
       style="fill:#000000"
       id="path3373"
       d="m 320.93864,816.18568 c 0.40057,0.45648 0.83964,0.86866 1.14367,1.39866 0.19236,0.3634 0.44178,0.6834 0.68882,1.00881 0.23343,0.26317 0.49673,0.49707 0.7307,0.75944 0.29045,0.22859 0.49906,0.52315 0.72405,0.81034 0,0 -3.22524,1.91903 -3.22524,1.91903 l 0,0 c -0.21343,-0.28274 -0.43907,-0.54708 -0.70737,-0.78175 -0.24989,-0.26247 -0.51245,-0.51268 -0.74712,-0.78949 -0.25943,-0.33785 -0.50314,-0.68286 -0.70126,-1.06149 -0.28555,-0.51601 -0.72533,-0.91257 -1.12545,-1.3395 0,0 3.2192,-1.92405 3.2192,-1.92405 z"
       inkscape:connector-curvature="0" />
    <path
       style="fill:#000000"
       id="path3375"
       d="m 319.42614,816.00412 c 0.57048,0.20985 1.16053,0.3895 1.681,0.70892 0.29003,0.15813 0.56023,0.35562 0.80515,0.57662 0,0 -3.18049,1.97945 -3.18049,1.97945 l 0,0 c -0.2357,-0.19631 -0.48544,-0.37716 -0.75656,-0.52207 -0.52035,-0.27928 -1.08869,-0.46786 -1.65293,-0.637 0,0 3.10383,-2.10592 3.10383,-2.10592 z"
       inkscape:connector-curvature="0" />
    <path
       style="fill:#000000"
       id="path3377"
       d="m 320.44208,816.12009 c 0.39926,0.44593 0.92118,0.74938 1.37378,1.13425 0.18487,0.12291 0.33673,0.28246 0.50988,0.42019 0,0 -3.17752,1.98777 -3.17752,1.98777 l 0,0 c -0.16648,-0.14383 -0.32682,-0.29477 -0.50249,-0.42762 -0.45549,-0.37872 -0.94345,-0.71739 -1.37948,-1.11977 0,0 3.17583,-1.99482 3.17583,-1.99482 z"
       inkscape:connector-curvature="0" />
    <path
       style="fill:#000000"
       id="path3379"
       d="m 316.14894,818.39293 c 0.50094,0.42083 0.93958,0.89665 1.37034,1.38571 0.28593,0.34351 0.47296,0.74995 0.69549,1.13271 0.14693,0.33989 0.33338,0.65052 0.53811,0.95728 0.25276,0.25331 0.40186,0.58336 0.63287,0.8541 0.23162,0.29975 0.39173,0.64391 0.58613,0.96641 0.0309,0.0562 0.0618,0.11248 0.0927,0.16872 0,0 -3.2531,1.86908 -3.2531,1.86908 l 0,0 c -0.0288,-0.0524 -0.0576,-0.10481 -0.0865,-0.15721 -0.18216,-0.30851 -0.33736,-0.63436 -0.55899,-0.91846 -0.22695,-0.28832 -0.40198,-0.61283 -0.65054,-0.88451 -0.21101,-0.31324 -0.39952,-0.63391 -0.54969,-0.98113 -0.20633,-0.36485 -0.3803,-0.7511 -0.64567,-1.08015 -0.40407,-0.48397 -0.83097,-0.94834 -1.34703,-1.31773 0,0 3.17583,-1.99482 3.17583,-1.99482 z"
       inkscape:connector-curvature="0" />
    <path
       style="fill:#000000"
       id="path3381"
       d="m 315.8964,819.15055 c 0.48297,0.41418 0.88124,0.86799 1.20923,1.41234 0.26334,0.41708 0.44709,0.86616 0.64502,1.31455 0.19937,0.27146 0.39096,0.54839 0.56247,0.83833 0.0939,0.19795 0.043,0.10894 0.148,0.26971 0,0 -3.24497,1.89395 -3.24497,1.89395 l 0,0 c -0.1224,-0.19302 -0.0718,-0.099 -0.15659,-0.27937 -0.18097,-0.30194 -0.3734,-0.59498 -0.57432,-0.88461 -0.19027,-0.43405 -0.3523,-0.87629 -0.60829,-1.28034 -0.30624,-0.50776 -0.67348,-0.93608 -1.15638,-1.28974 0,0 3.17583,-1.99482 3.17583,-1.99482 z"
       inkscape:connector-curvature="0" />
    <path
       style="fill:#ff00ff"
       d="m 330.75141,59.117572 c -0.71329,-3.708278 -1.04826,-6.821282 -1.05301,-9.785853 -0.004,-2.66479 -0.47813,-4.9871 -1.95815,-9.596449 -0.51287,-1.597304 -0.96128,-2.948793 -0.99645,-3.00331 -0.0352,-0.05452 -0.21499,0.02622 -0.39958,0.179425 -0.2651,0.220015 -0.51123,-0.07755 -1.1713,-1.416107 -0.45962,-0.93206 -0.82797,-1.751475 -0.81855,-1.820923 0.009,-0.06945 -0.29681,-0.467196 -0.68052,-0.883884 -0.3837,-0.416688 -1.16068,-1.382646 -1.72662,-2.146574 -0.79776,-1.076842 -1.73078,-1.839195 -4.15207,-3.392559 -3.3365,-2.140517 -4.265,-2.750805 -7.38642,-4.85496 -1.09478,-0.737989 -2.45848,-1.54013 -3.03046,-1.782535 -1.72247,-0.729986 -5.2589,-2.612192 -6.46953,-3.443294 -0.62503,-0.429088 -2.32966,-1.393592 -3.78807,-2.143341 l -2.65165,-1.363182 1.57767,0.152233 c 0.88568,0.08546 2.60257,0.553116 3.91434,1.06621 1.28517,0.502688 3.24581,1.233627 4.35698,1.62431 3.14267,1.104952 6.72371,2.821178 10.23997,4.907543 1.7707,1.050637 3.66526,2.067542 4.21014,2.259787 1.59189,0.56165 3.36912,1.531087 4.99532,2.724826 0.83338,0.611752 2.14026,1.469 2.90419,1.904995 0.80613,0.460082 2.63316,2.053439 4.35404,3.797184 2.75507,2.791659 3.05906,3.199729 4.29189,5.761252 l 1.32681,2.756787 0.0836,4.700063 0.0836,4.700063 -1.19336,4.012503 c -0.65635,2.206878 -1.36258,4.353429 -1.5694,4.770117 -0.43514,0.876696 -2.28433,3.156727 -2.56021,3.156727 -0.10272,0 -0.43266,-1.278474 -0.73322,-2.841054 z"
       id="path3383"
       inkscape:connector-curvature="0"
       transform="translate(0,786.61418)" />
    <path
       style="fill:#ffccaa"
       d="m 36.874209,249.86942 c -0.476319,-0.27608 -1.642551,-0.4734 -2.809564,-0.47537 -0.642394,-0.001 -1.167989,-0.0383 -1.167989,-0.0827 0,-0.0444 0.111878,-0.74043 0.248617,-1.54679 0.13674,-0.80637 0.363432,-2.71619 0.50376,-4.24404 0.140328,-1.52786 0.284817,-2.991 0.321086,-3.25143 0.03814,-0.27387 0.01302,-0.47351 -0.05959,-0.47351 -0.06905,0 -0.510081,0.23714 -0.980078,0.52698 -0.927579,0.57202 -5.859125,2.90742 -5.949217,2.81732 -0.10711,-0.10711 0.267852,-0.43831 1.424201,-1.25798 0.642818,-0.45566 1.305488,-0.9786 1.4726,-1.16209 0.345598,-0.37946 0.22481,-0.32407 -0.810746,0.37176 -0.404678,0.27192 -0.765133,0.46505 -0.801012,0.42917 -0.03588,-0.0359 1.065126,-1.39047 2.446676,-3.0102 5.743187,-6.73334 8.468875,-10.16754 10.75574,-13.55158 3.042258,-4.50185 3.998543,-6.49583 9.295458,-19.3823 2.448696,-5.95724 3.342834,-7.96097 4.278213,-9.58729 0.302472,-0.5259 1.331434,-2.43352 2.286585,-4.23917 0.955151,-1.80565 1.779675,-3.33022 1.832276,-3.38794 0.0526,-0.0577 0.542758,0.0346 1.089238,0.20523 0.546482,0.17059 1.58482,0.40746 2.307419,0.52638 0.722598,0.11892 1.631736,0.31156 2.020305,0.42808 0.618452,0.18547 0.739603,0.27719 0.972225,0.73603 0.372387,0.73453 0.485426,2.18354 0.25613,3.28325 -0.09954,0.47738 -0.428139,1.51975 -0.730228,2.31639 -0.81592,2.15164 -0.733346,3.18984 0.300379,3.77666 0.309233,0.17554 0.411284,0.12188 3.027565,-1.59202 3.096604,-2.02854 3.319428,-2.11398 5.529849,-2.12035 1.750572,-0.005 2.05524,0.1221 3.276967,1.3676 1.443027,1.4711 2.108076,2.809 2.238769,4.5038 0.07165,0.92919 0.05617,1.00975 -0.320815,1.66864 -0.659199,1.15217 -0.804124,1.6812 -0.590547,2.15574 0.322465,0.71649 0.533165,0.85863 2.002746,1.35109 1.850052,0.61996 2.586114,0.99632 4.653552,2.37944 2.027514,1.3564 2.315415,1.61434 2.652546,2.37648 0.277391,0.62709 0.277389,0.62733 -0.02024,3.25901 -0.173793,1.53669 -0.605253,3.26505 -0.93853,3.7596 -0.150565,0.22342 -1.095556,0.98016 -2.099981,1.68164 -1.004425,0.70148 -1.843865,1.36555 -1.865421,1.47571 -0.05117,0.26151 0.262019,0.85899 0.641938,1.22465 0.165796,0.15958 0.914163,0.50574 1.663037,0.76926 0.748872,0.26352 1.495533,0.60496 1.659246,0.75876 0.439261,0.41266 0.605761,1.05298 0.604812,2.32594 -6.31e-4,0.9221 -0.07394,1.36265 -0.388396,2.33598 -0.213151,0.65975 -0.534398,1.68534 -0.713881,2.27908 l -0.326333,1.07952 -0.880466,0.22836 c -0.487114,0.12634 -0.982419,0.34194 -1.108673,0.48258 -0.125513,0.13982 -0.768303,0.63777 -1.42842,1.10657 -0.660117,0.46879 -1.654486,1.2666 -2.209708,1.7729 -1.224308,1.11643 -2.269939,1.90171 -2.994115,2.24861 -0.600806,0.2878 -4.205587,1.36953 -7.459113,2.23835 -1.166068,0.31138 -4.092354,1.15703 -6.502857,1.87922 -10.304891,3.08736 -15.791649,4.67013 -18.84054,5.43492 -1.006996,0.2526 -3.063893,0.79649 -4.570883,1.20864 -1.506989,0.41215 -2.785464,0.74765 -2.841054,0.74553 -0.05559,-0.002 -0.21468,-0.0697 -0.353533,-0.15016 z"
       id="path3385"
       inkscape:connector-curvature="0"
       transform="translate(0,786.61418)" />
    <path
       style="fill:#666666"
       d="m 296.94369,94.312708 c -2.42865,-11.330397 -2.63771,-32.410306 -0.35011,-35.302239 0.68798,-0.869721 0.22216,-1.407739 -1.61888,-1.869811 -1.42163,-0.356807 -9.30306,-4.394019 -17.51428,-8.971584 -8.21122,-4.577564 -16.63412,-8.885299 -18.71756,-9.572745 -2.08344,-0.687445 -3.78807,-1.362593 -3.78807,-1.500328 0,-1.028709 16.15975,-10.149852 20.82752,-11.7558 3.2084,-1.103852 6.88397,-2.69533 8.16794,-3.536619 2.05167,-1.344305 2.67011,-1.352059 5.1048,-0.06401 2.58837,1.369357 2.63763,1.512837 0.75,2.184743 -9.05267,3.222327 -15.87741,7.393146 -16.24986,9.930814 -0.25598,1.74408 10.74981,-2.691525 16.55191,-6.670831 3.6026,-2.470803 4.60511,-2.760554 5.8827,-1.70025 1.34287,1.114479 1.18899,1.462047 -1.20185,2.714737 -3.63247,1.903241 -14.88586,10.207516 -15.82657,11.678981 -0.40818,0.63848 -0.74911,1.515768 -0.75762,1.949528 -0.0199,1.013258 10.13791,-5.451353 16.54729,-10.531018 l 4.94599,-3.919881 3.13523,1.853827 c 7.46071,4.411443 10.65816,6.899905 12.18337,9.481887 1.61936,2.741348 1.60803,2.765254 -2.24046,4.728605 -3.99914,2.040212 -12.9687,10.966526 -11.99653,11.938695 0.62004,0.620043 12.65359,-7.731617 14.70953,-10.208878 2.78374,-3.354193 3.43264,-1.906132 5.6175,12.535625 0.71445,4.722463 0.93801,8.723899 0.49681,8.892082 -4.44615,1.694817 -17.89422,12.924001 -16.79464,14.023579 0.26965,0.269652 3.93651,-1.835217 8.14856,-4.677484 4.21206,-2.842269 7.65829,-4.901542 7.65829,-4.576164 0,1.096533 -18.15873,22.181592 -20.63009,23.954689 -2.4092,1.728497 -2.45732,1.712513 -3.04092,-1.010153 z m 16.08823,-35.329142 c 2.77427,-2.132638 5.20121,-4.693189 5.3932,-5.690112 0.33526,-1.740873 0.2356,-1.740565 -2.51874,0.0078 -5.16018,3.275447 -10.39057,7.708522 -12.00871,10.178115 l -1.58757,2.422937 2.83885,-1.520593 c 1.56137,-0.836326 5.1087,-3.265478 7.88297,-5.398117 z m -9.76385,-19.736911 c 2.96,-2.168962 5.14846,-4.176917 4.86325,-4.462124 -0.28521,-0.285207 -2.64053,0.541208 -5.23406,1.836476 -4.37452,2.184742 -7.53637,5.216964 -7.53637,7.227397 0,1.034834 1.04438,0.427036 7.90718,-4.601749 z"
       id="path3387"
       inkscape:connector-curvature="0"
       transform="translate(0,786.61418)" />
  </g>
</svg>
